<?xml version="1.0" encoding="UTF-8" standalone="no"?>
<svg width="6505px" height="2283px" viewBox="0 0 6505 2283" version="1.1" xmlns="http://www.w3.org/2000/svg" xmlns:xlink="http://www.w3.org/1999/xlink">
    <!-- Generator: Sketch 3.6.1 (26313) - http://www.bohemiancoding.com/sketch -->
    <title>_128328744</title>
    <desc>Created with Sketch.</desc>
    <defs></defs>
    <g id="Page-1" stroke="none" stroke-width="1" fill="none" fill-rule="evenodd">
        <g id="_128328744" fill="#FEFEFE">
            <g id="Group">
                <path d="M590,533 L794,533 L794,668 C847,616 899,578 949,552 C999,527 1047,514 1094,514 C1160,514 1219,530 1271,561 C1324,592 1367,638 1400,699 C1444,649 1494,605 1550,569 C1606,532 1670,514 1743,514 C1847,514 1930,551 1991,624 C2053,697 2084,795 2084,917 L2084,1560 L1880,1560 L1880,924 C1880,848 1859,789 1817,748 C1775,707 1725,686 1667,686 C1667,686 1667,686 1666,686 L1665,686 C1665,686 1665,686 1664,686 L1663,686 C1645,686 1625,690 1603,699 C1582,707 1559,719 1537,734 C1520,745 1503,757 1487,771 C1470,785 1454,800 1439,817 L1439,1561 L1235,1561 L1235,922 C1235,840 1217,780 1180,742 C1143,705 1100,686 1050,686 C1015,686 983,690 955,699 C927,707 899,721 871,741 C859,750 846,761 833,774 C820,787 807,801 793,816 L793,1560 L589,1560 L589,532 L590,533 Z M3753,0 L3753,1561 L3320,1561 C3167,1561 3046,1513 2956,1417 C2866,1321 2821,1190 2821,1026 C2821,876 2869,754 2965,659 C3061,564 3184,516 3334,516 L3355,516 C3361,516 3368,517 3376,518 C3403,520 3431,523 3458,529 C3485,535 3516,544 3550,556 L3550,0 L3754,0 L3753,0 Z M3549,1389 L3549,734 C3532,728 3516,723 3500,718 C3484,713 3469,710 3455,707 C3440,704 3424,702 3408,700 C3392,698 3376,698 3359,698 C3261,698 3182,730 3121,795 C3060,860 3029,946 3029,1054 C3029,1150 3052,1229 3098,1294 C3144,1358 3225,1390 3343,1390 L3549,1390 L3549,1389 Z M4890,1263 L4890,1460 C4881,1468 4871,1474 4861,1481 C4851,1487 4842,1492 4832,1497 C4780,1528 4727,1549 4672,1562 C4617,1575 4553,1581 4480,1581 C4320,1581 4197,1526 4110,1415 C4024,1304 3981,1178 3981,1036 C3981,880 4026,754 4115,658 C4204,562 4320,514 4462,514 C4598,514 4706,561 4787,654 C4868,747 4908,889 4908,1080 L4185,1080 C4202,1183 4239,1260 4297,1312 C4355,1364 4433,1389 4530,1389 C4576,1389 4621,1383 4666,1371 C4711,1359 4756,1341 4800,1318 C4815,1310 4830,1302 4845,1293 C4859,1284 4874,1275 4890,1266 L4890,1264 L4890,1263 Z M4190,943 L4707,943 C4704,867 4681,806 4638,760 C4595,714 4538,691 4466,691 C4388,691 4326,713 4279,757 C4232,801 4202,863 4189,943 L4190,943 Z M5779,1576 C5771,1578 5764,1580 5757,1580 C5749,1581 5739,1581 5728,1581 C5684,1581 5649,1573 5624,1557 C5599,1541 5582,1515 5572,1478 C5528,1513 5482,1539 5436,1556 C5389,1573 5343,1581 5295,1581 C5220,1581 5160,1556 5113,1505 C5066,1455 5043,1397 5043,1331 C5043,1239 5074,1172 5137,1130 C5200,1087 5268,1052 5343,1025 C5352,1022 5361,1019 5369,1016 L5393,1007 L5574,941 L5574,886 C5574,823 5559,778 5528,750 C5497,722 5451,708 5388,708 C5380,708 5373,708 5366,709 C5359,710 5353,710 5347,710 C5297,716 5247,733 5199,760 C5151,787 5106,826 5063,877 L5063,653 C5103,607 5151,573 5207,550 C5263,527 5329,516 5404,516 C5508,516 5596,543 5668,597 C5740,651 5777,737 5777,855 L5777,925 L5777,1382 L5777,1383 L5777,1384 L5777,1578 L5779,1576 Z M5575,1353 L5575,1053 C5488,1084 5412,1116 5347,1151 C5282,1186 5250,1234 5250,1295 C5250,1338 5264,1372 5291,1399 C5318,1426 5354,1439 5396,1439 C5428,1439 5459,1431 5489,1416 C5519,1401 5547,1380 5575,1354 L5575,1352 L5575,1353 Z" id="Shape"></path>
                <path d="M124,1570 L124,497 L0,497 L0,360 L5,360 C48,360 85,349 114,326 C143,303 162,272 171,231 L348,231 L348,1570 L124,1570 L124,1570 Z" id="Shape"></path>
                <path d="M4700,1987 C5689,2272 6359,1671 6372,841 C6366,812 6342,814 6322,805 C6285,785 6301,753 6355,729 C6413,709 6475,722 6503,775 C6515,803 6454,807 6431,824 C6417,833 6415,835 6414,844 C6382,1929 5763,2360 4687,2027 C4678,2025 4675,2026 4662,2036 C4638,2052 4612,2106 4591,2085 C4552,2040 4562,1977 4602,1931 C4644,1889 4680,1886 4685,1928 C4686,1950 4675,1971 4701,1987 L4700,1987 Z" id="Shape"></path>
                <path d="M1204,1715 L1204,1897 L1205,1897 C1216,1884 1229,1874 1243,1866 C1258,1859 1273,1855 1288,1855 C1315,1855 1338,1864 1356,1883 C1374,1902 1383,1930 1383,1969 L1383,2140 L1328,2140 L1328,1967 C1328,1947 1323,1930 1313,1918 C1303,1906 1290,1900 1273,1900 C1268,1900 1263,1901 1258,1902 C1253,1903 1249,1905 1244,1907 C1237,1910 1231,1915 1224,1920 C1217,1926 1210,1933 1203,1941 L1203,2141 L1148,2141 L1148,1716 L1203,1716 L1204,1715 Z M1678,2090 L1678,2124 C1669,2130 1662,2135 1656,2138 C1650,2141 1645,2143 1639,2144 C1637,2145 1634,2145 1632,2146 L1624,2146 C1612,2146 1602,2144 1596,2139 C1589,2135 1584,2127 1582,2117 C1570,2127 1558,2134 1545,2138 C1532,2143 1520,2145 1507,2145 C1487,2145 1470,2138 1457,2124 C1444,2110 1438,2095 1438,2077 C1438,2052 1447,2034 1464,2022 C1481,2010 1500,2001 1520,1993 C1523,1992 1525,1991 1527,1991 C1529,1990 1531,1989 1534,1988 L1583,1970 L1583,1955 C1583,1938 1579,1926 1571,1918 C1563,1910 1550,1906 1533,1906 L1527,1906 L1522,1906 C1508,1908 1495,1912 1482,1920 C1469,1927 1457,1938 1445,1952 L1445,1891 C1456,1879 1469,1869 1484,1863 C1499,1857 1517,1854 1538,1854 C1566,1854 1590,1861 1610,1876 C1630,1891 1640,1914 1640,1946 L1640,2089 C1640,2095 1641,2099 1643,2101 C1645,2103 1647,2104 1651,2104 C1654,2104 1658,2103 1663,2100 C1668,2097 1674,2094 1680,2089 L1680,2088 L1678,2090 Z M1583,2083 L1583,2001 C1559,2009 1539,2018 1521,2028 C1503,2038 1494,2051 1494,2067 C1494,2079 1498,2088 1505,2095 C1512,2102 1522,2106 1534,2106 C1543,2106 1551,2104 1559,2100 C1567,2096 1575,2090 1582,2083 L1582,2082 L1583,2083 Z M1773,2133 L1773,2283 L1718,2283 L1718,1860 L1814,1860 C1865,1860 1904,1873 1931,1897 C1958,1921 1972,1957 1972,2003 C1972,2045 1959,2079 1932,2106 C1905,2133 1871,2146 1830,2146 L1824,2146 C1822,2146 1820,2146 1818,2145 C1811,2144 1804,2143 1797,2141 C1790,2139 1782,2137 1774,2134 L1774,2133 L1773,2133 Z M1773,1910 L1773,2083 C1779,2086 1785,2088 1790,2090 C1796,2092 1802,2093 1807,2095 C1810,2095 1813,2096 1816,2096 L1825,2096 C1851,2096 1872,2087 1889,2069 C1906,2051 1914,2029 1914,2001 C1914,1972 1906,1949 1891,1933 C1876,1917 1853,1909 1823,1909 L1773,1909 L1773,1910 Z M2085,2133 L2085,2283 L2030,2283 L2030,1860 L2126,1860 C2177,1860 2216,1873 2243,1897 C2270,1921 2284,1957 2284,2003 C2284,2045 2271,2079 2244,2106 C2217,2133 2183,2146 2142,2146 L2136,2146 C2134,2146 2132,2146 2130,2145 C2123,2144 2116,2143 2109,2141 C2102,2139 2094,2137 2086,2134 L2086,2133 L2085,2133 Z M2085,1910 L2085,2083 C2091,2086 2097,2088 2102,2090 C2108,2092 2114,2093 2119,2095 C2122,2095 2125,2096 2128,2096 L2137,2096 C2163,2096 2184,2087 2201,2069 C2218,2051 2226,2029 2226,2001 C2226,1972 2218,1949 2203,1933 C2188,1917 2165,1909 2135,1909 L2085,1909 L2085,1910 Z" id="Shape"></path>
                <path d="M2923,1717 L2923,2142 L2805,2142 C2765,2142 2730,2129 2706,2103 C2681,2077 2669,2041 2669,1996 C2669,1955 2683,1921 2708,1896 C2733,1871 2768,1857 2808,1857 L2814,1857 C2816,1857 2818,1857 2820,1858 C2828,1858 2836,1860 2842,1861 C2849,1862 2858,1865 2867,1868 L2867,1716 L2923,1716 L2923,1717 Z M2867,2095 L2867,1917 C2862,1915 2857,1913 2854,1913 C2850,1912 2846,1911 2842,1910 C2838,1909 2833,1908 2829,1908 C2825,1908 2820,1907 2816,1907 C2789,1907 2768,1916 2751,1933 C2734,1951 2726,1974 2726,2004 C2726,2030 2732,2052 2745,2069 C2757,2086 2780,2095 2812,2095 L2868,2095 L2867,2095 Z M3232,2061 L3232,2115 C3230,2117 3227,2119 3224,2121 C3221,2123 3219,2124 3216,2125 C3202,2133 3187,2140 3172,2143 C3158,2146 3140,2148 3120,2148 C3076,2148 3043,2133 3019,2103 C2996,2073 2984,2038 2984,2000 C2984,1958 2997,1923 3020,1897 C3044,1871 3076,1858 3114,1858 C3151,1858 3181,1871 3203,1896 C3224,1921 3236,1960 3236,2012 L3039,2012 C3044,2040 3054,2061 3070,2075 C3086,2089 3107,2096 3134,2096 C3146,2096 3160,2094 3171,2091 C3183,2088 3195,2083 3207,2077 C3211,2075 3216,2072 3219,2070 C3222,2068 3227,2065 3231,2063 L3231,2062 L3232,2061 Z M3041,1974 L3182,1974 C3181,1953 3175,1937 3163,1924 C3151,1912 3136,1905 3116,1905 C3095,1905 3077,1912 3065,1923 C3053,1934 3044,1952 3040,1974 L3041,1974 Z M3514,2092 L3514,2126 C3505,2132 3498,2137 3492,2140 C3486,2143 3481,2145 3475,2146 C3473,2147 3470,2147 3468,2148 L3460,2148 C3448,2148 3438,2146 3432,2141 C3425,2137 3420,2129 3418,2119 C3406,2129 3394,2136 3381,2140 C3368,2145 3356,2147 3343,2147 C3323,2147 3305,2139 3293,2126 C3281,2113 3274,2096 3274,2079 C3274,2054 3283,2035 3300,2024 C3316,2013 3336,2003 3356,1995 C3359,1994 3361,1993 3363,1992 C3365,1991 3367,1990 3370,1989 L3419,1971 L3419,1956 C3419,1939 3415,1927 3407,1919 C3399,1911 3386,1907 3369,1907 L3363,1907 L3358,1907 C3344,1909 3330,1914 3318,1921 C3306,1928 3293,1939 3281,1953 L3281,1892 C3292,1880 3306,1869 3320,1864 C3335,1858 3353,1855 3374,1855 C3402,1855 3427,1863 3446,1877 C3465,1891 3476,1917 3476,1947 L3476,2090 C3476,2094 3478,2100 3479,2102 C3480,2103 3483,2105 3487,2105 C3490,2105 3494,2104 3499,2101 C3504,2098 3510,2095 3516,2090 L3516,2089 L3514,2092 Z M3419,2085 L3419,2003 C3395,2011 3374,2021 3357,2030 C3340,2039 3330,2053 3330,2069 C3330,2081 3334,2091 3341,2097 C3348,2104 3358,2108 3370,2108 C3379,2108 3387,2106 3395,2102 C3403,2098 3411,2092 3418,2085 L3418,2084 L3419,2085 Z M3726,1879 L3726,1934 C3711,1924 3695,1916 3682,1912 C3669,1908 3656,1905 3645,1905 C3634,1905 3624,1908 3618,1912 C3612,1916 3608,1923 3608,1930 C3608,1936 3614,1944 3624,1952 C3634,1960 3652,1972 3676,1986 C3688,1994 3699,2002 3707,2009 C3716,2016 3722,2023 3727,2029 C3731,2035 3735,2041 3736,2046 C3737,2051 3739,2058 3739,2064 C3739,2089 3730,2109 3713,2123 C3696,2137 3674,2145 3647,2145 C3639,2145 3632,2144 3625,2144 C3619,2144 3611,2142 3604,2141 C3596,2139 3586,2136 3578,2133 C3570,2130 3560,2125 3550,2120 L3550,2060 C3568,2073 3586,2083 3601,2088 C3616,2093 3630,2097 3642,2097 C3653,2096 3663,2093 3671,2088 C3679,2083 3683,2075 3683,2065 C3683,2060 3680,2055 3677,2051 C3674,2048 3668,2042 3663,2038 C3657,2034 3650,2030 3642,2025 C3634,2021 3626,2016 3618,2011 C3602,2001 3586,1990 3573,1977 C3560,1965 3552,1948 3552,1930 C3552,1906 3560,1888 3577,1874 C3594,1860 3616,1854 3644,1854 C3657,1854 3671,1857 3684,1860 C3697,1863 3712,1870 3726,1877 L3726,1876 L3726,1879 Z" id="Shape"></path>
                <path d="M2574,550 L2574,2143 L2370,2143 L2370,553 C2397,576 2432,590 2470,590 C2510,590 2546,575 2573,550 L2574,550 Z" id="Shape"></path>
                <path d="M2595,348 C2595,383 2583,413 2560,436 C2540,456 2516,468 2488,471 C2478,470 2468,470 2458,471 C2431,468 2408,456 2388,436 C2364,412 2353,384 2353,350 C2353,316 2365,288 2388,264 C2412,240 2440,229 2474,229 C2508,229 2536,241 2560,264 C2584,288 2595,316 2595,350 L2595,348 L2595,348 Z" id="Shape"></path>
            </g>
        </g>
    </g>
</svg>