<?xml version="1.0" encoding="UTF-8" standalone="no"?>
<svg width="1353px" height="1156px" viewBox="0 0 1353 1156" version="1.1" xmlns="http://www.w3.org/2000/svg" xmlns:xlink="http://www.w3.org/1999/xlink">
    <!-- Generator: Sketch 3.6.1 (26313) - http://www.bohemiancoding.com/sketch -->
    <title>_128330352</title>
    <desc>Created with Sketch.</desc>
    <defs></defs>
    <g id="Page-1" stroke="none" stroke-width="1" fill="none" fill-rule="evenodd">
        <g id="1midea-new-logo-1" transform="translate(2.000000, 2.000000)" stroke-width="3" stroke="#D2D3D5">
            <g id="Layer_x0020_1">
                <g id="_128330352">
                    <path d="M188,902 C764,1068 1154,718 1161,235 C1158,218 1144,219 1132,214 C1110,203 1120,184 1151,170 C1184,158 1221,166 1237,197 C1244,213 1209,216 1195,225 C1187,230 1186,231 1185,237 C1166,868 806,1120 180,926 C175,925 173,926 165,931 C151,940 136,972 124,960 C101,934 107,897 130,870 C154,846 175,844 178,868 C179,881 172,893 187,902 L188,902 Z" id="Shape" fill="#F44336"></path>
                    <path d="M1,1152 L1348,1152 C1348,1152 1349,1152 1349,1151 L1349,1 C1349,1 1349,0 1348,0 L1,0 C1,0 0,0 0,1 L0,1151 C0,1151 0,1152 1,1152 L1,1152 Z" id="Shape"></path>
                </g>
            </g>
        </g>
    </g>
</svg>