<?xml version="1.0" encoding="UTF-8" standalone="no"?>
<svg width="8633px" height="3111px" viewBox="0 0 8633 3111" version="1.1" xmlns="http://www.w3.org/2000/svg" xmlns:xlink="http://www.w3.org/1999/xlink">
    <!-- Generator: Sketch 3.6.1 (26313) - http://www.bohemiancoding.com/sketch -->
    <title>_128339256</title>
    <desc>Created with Sketch.</desc>
    <defs></defs>
    <g id="Page-1" stroke="none" stroke-width="1" fill="none" fill-rule="evenodd">
        <g id="1midea-new-logo-1" transform="translate(-1464.000000, -1567.000000)" stroke-width="3" stroke="#D2D3D5">
            <g id="Layer_x0020_1">
                <g id="_128339256" transform="translate(1466.000000, 1569.000000)">
                    <g id="Group" transform="translate(585.000000, 243.000000)">
                        <path d="M676,612 L910,612 L910,767 C971,707 1030,663 1087,634 C1144,605 1199,591 1254,591 C1329,591 1397,609 1457,645 C1517,681 1567,734 1605,804 C1656,746 1713,696 1777,654 C1841,612 1915,591 1999,591 C2118,591 2213,633 2284,717 C2355,801 2390,913 2390,1053 L2390,1791 L2156,1791 L2156,1061 C2156,973 2132,906 2084,859 C2036,812 1979,788 1912,788 C1912,788 1912,788 1911,788 L1910,788 C1910,788 1910,788 1909,788 L1908,788 C1887,788 1864,793 1840,802 C1816,812 1790,825 1764,843 C1745,855 1726,869 1706,885 C1687,901 1668,918 1651,938 L1651,1791 L1417,1791 L1417,1059 C1417,964 1396,896 1354,853 C1312,810 1262,789 1204,789 C1164,789 1127,794 1095,803 C1063,813 1031,829 999,852 C985,863 971,875 956,890 C941,905 926,921 910,939 L910,1792 L676,1792 L676,613 L676,612 Z M4304,0 L4304,1791 L3808,1791 C3633,1791 3494,1736 3391,1626 C3288,1516 3236,1366 3236,1177 C3236,1005 3291,865 3401,756 C3511,647 3652,592 3824,592 L3848,592 C3855,592 3863,593 3872,595 C3904,597 3935,601 3967,608 C3999,615 4034,626 4072,640 L4072,2 L4306,2 L4304,0 Z M4070,1594 L4070,843 C4051,836 4032,830 4014,825 C3996,820 3979,815 3963,812 C3946,808 3928,806 3909,804 C3891,802 3872,801 3853,801 C3741,801 3650,838 3580,912 C3510,986 3475,1085 3475,1209 C3475,1319 3501,1410 3554,1484 C3606,1557 3700,1594 3835,1594 L4071,1594 L4070,1594 Z M5608,1450 L5608,1676 C5597,1685 5587,1693 5575,1700 C5564,1707 5553,1713 5542,1718 C5482,1753 5421,1778 5358,1793 C5295,1808 5221,1815 5137,1815 C4953,1815 4812,1752 4713,1625 C4614,1498 4565,1353 4565,1190 C4565,1011 4616,867 4719,757 C4821,647 4954,592 5117,592 C5273,592 5397,645 5490,752 C5583,859 5629,1022 5629,1240 L4799,1240 C4818,1358 4861,1447 4928,1506 C4995,1565 5084,1595 5196,1595 C5249,1595 5301,1588 5352,1574 C5404,1560 5455,1540 5506,1514 C5524,1505 5541,1496 5557,1485 C5574,1474 5591,1464 5608,1453 L5608,1450 L5608,1450 Z M4805,1082 L5398,1082 C5394,994 5368,924 5319,872 C5270,819 5204,793 5122,793 C5033,793 4961,818 4908,868 C4855,918 4820,990 4804,1082 L4805,1082 Z M6627,1808 C6618,1811 6610,1812 6602,1813 C6592,1814 6581,1814 6569,1814 C6518,1814 6478,1805 6450,1786 C6421,1768 6401,1737 6391,1695 C6340,1735 6288,1765 6235,1784 C6182,1803 6128,1813 6074,1813 C5988,1813 5919,1784 5865,1726 C5812,1668 5785,1602 5785,1526 C5785,1421 5821,1344 5893,1295 C5965,1246 6044,1206 6129,1174 C6139,1170 6150,1167 6159,1163 C6169,1159 6178,1156 6187,1153 L6394,1077 L6394,1014 C6394,942 6377,890 6342,858 C6307,826 6254,809 6182,809 C6173,809 6165,809 6157,810 C6149,811 6142,811 6135,811 C6077,818 6021,837 5966,869 C5911,901 5859,945 5810,1003 L5810,746 C5856,694 5911,654 5975,628 C6040,602 6115,589 6201,589 C6320,589 6421,620 6504,682 C6587,744 6629,843 6629,977 L6629,1057 L6629,1581 L6629,1582 L6629,1583 L6629,1806 L6627,1808 Z M6393,1552 L6393,1208 C6293,1243 6206,1281 6132,1321 C6058,1361 6020,1416 6020,1486 C6020,1535 6036,1575 6067,1605 C6099,1636 6139,1651 6188,1651 C6225,1651 6260,1642 6294,1625 C6328,1608 6361,1584 6392,1554 L6392,1551 L6393,1552 Z" id="Shape" fill="#007B7E"></path>
                        <path d="M142,1802 L142,571 L0,571 L0,414 L6,414 C56,414 97,401 131,375 C165,349 186,313 197,267 L399,267 L399,1802 L142,1802 L142,1802 Z" id="Shape" fill="#007B7E"></path>
                        <path d="M5390,2280 C6524,2607 7293,1917 7308,966 C7302,932 7274,935 7251,925 C7209,903 7227,865 7289,838 C7355,815 7426,830 7459,890 C7473,922 7403,927 7377,946 C7361,956 7359,959 7357,969 C7321,2213 6610,2708 5376,2326 C5365,2324 5362,2325 5347,2336 C5320,2354 5290,2417 5265,2393 C5220,2341 5232,2269 5278,2216 C5326,2168 5367,2165 5373,2213 C5375,2238 5362,2263 5391,2281 L5390,2280 Z" id="Shape" fill="#F44336"></path>
                        <path d="M1381,1968 L1381,2177 L1382,2177 C1394,2162 1409,2151 1426,2142 C1443,2133 1460,2129 1478,2129 C1509,2129 1536,2140 1556,2162 C1577,2184 1587,2216 1587,2260 L1587,2456 L1523,2456 L1523,2257 C1523,2234 1517,2215 1506,2201 C1495,2187 1479,2180 1460,2180 C1454,2180 1449,2181 1443,2182 C1438,2183 1432,2185 1427,2187 C1419,2191 1412,2196 1404,2202 C1396,2208 1388,2216 1380,2226 L1380,2456 L1316,2456 L1316,1968 L1380,1968 L1381,1968 Z M1925,2398 L1925,2437 C1915,2444 1907,2449 1900,2453 C1893,2456 1887,2459 1881,2460 C1878,2461 1875,2462 1873,2462 L1864,2462 C1850,2462 1839,2459 1831,2454 C1823,2449 1818,2441 1815,2429 C1801,2440 1787,2448 1772,2453 C1757,2458 1743,2461 1728,2461 C1705,2461 1686,2453 1671,2437 C1656,2421 1649,2403 1649,2383 C1649,2354 1659,2333 1678,2320 C1698,2307 1719,2296 1742,2287 C1745,2286 1748,2285 1750,2284 C1753,2283 1755,2282 1758,2281 L1814,2260 L1814,2243 C1814,2223 1809,2209 1800,2200 C1790,2191 1776,2187 1756,2187 L1749,2187 L1743,2187 C1727,2189 1712,2194 1697,2203 C1682,2212 1668,2224 1654,2239 L1654,2169 C1666,2155 1681,2144 1699,2137 C1717,2130 1737,2126 1760,2126 C1792,2126 1820,2134 1843,2151 C1866,2168 1877,2195 1877,2231 L1877,2395 C1877,2402 1878,2406 1880,2409 C1882,2411 1885,2413 1889,2413 C1892,2413 1897,2411 1903,2408 C1909,2405 1915,2401 1923,2395 L1923,2394 L1925,2398 Z M1816,2390 L1816,2296 C1789,2306 1765,2316 1745,2327 C1725,2338 1715,2353 1715,2372 C1715,2385 1719,2396 1728,2405 C1737,2413 1748,2417 1761,2417 C1771,2417 1781,2415 1790,2410 C1799,2405 1808,2399 1817,2391 L1817,2390 L1816,2390 Z M2034,2447 L2034,2619 L1970,2619 L1970,2134 L2080,2134 C2139,2134 2183,2149 2214,2177 C2245,2205 2260,2245 2260,2298 C2260,2346 2245,2385 2214,2416 C2183,2446 2144,2462 2097,2462 L2090,2462 C2088,2462 2086,2462 2083,2461 C2075,2460 2067,2459 2059,2457 C2051,2455 2042,2452 2033,2448 L2033,2447 L2034,2447 Z M2034,2191 L2034,2390 C2041,2393 2047,2396 2054,2398 C2061,2400 2067,2402 2074,2403 C2077,2403 2081,2404 2084,2404 L2094,2404 C2124,2404 2148,2394 2167,2373 C2186,2353 2196,2327 2196,2296 C2196,2263 2187,2237 2170,2218 C2153,2200 2126,2190 2092,2190 L2034,2190 L2034,2191 Z M2392,2447 L2392,2619 L2328,2619 L2328,2134 L2438,2134 C2497,2134 2541,2149 2572,2177 C2603,2205 2618,2245 2618,2298 C2618,2346 2603,2385 2572,2416 C2541,2446 2502,2462 2455,2462 L2448,2462 C2446,2462 2444,2462 2441,2461 C2433,2460 2425,2459 2417,2457 C2409,2455 2400,2452 2391,2448 L2391,2447 L2392,2447 Z M2392,2191 L2392,2390 C2399,2393 2405,2396 2412,2398 C2419,2400 2425,2402 2432,2403 C2435,2403 2439,2404 2442,2404 L2452,2404 C2482,2404 2506,2394 2525,2373 C2544,2353 2554,2327 2554,2296 C2554,2263 2545,2237 2528,2218 C2511,2200 2484,2190 2450,2190 L2392,2190 L2392,2191 Z" id="Shape" fill="#007B7E"></path>
                        <path d="M3352,1970 L3352,2458 L3217,2458 C3171,2458 3131,2443 3103,2413 C3075,2383 3061,2342 3061,2291 C3061,2244 3077,2205 3106,2176 C3135,2147 3174,2131 3221,2131 L3227,2131 C3229,2131 3231,2131 3233,2132 C3242,2132 3251,2134 3259,2136 C3267,2137 3277,2141 3288,2145 L3288,1971 L3352,1971 L3352,1970 Z M3288,2404 L3288,2199 C3283,2197 3277,2195 3273,2194 C3269,2193 3263,2191 3259,2190 C3254,2189 3249,2188 3244,2188 C3239,2188 3234,2187 3229,2187 C3198,2187 3174,2197 3155,2217 C3136,2237 3126,2264 3126,2298 C3126,2328 3133,2353 3147,2373 C3161,2393 3187,2403 3224,2403 L3288,2403 L3288,2404 Z M3707,2365 L3707,2427 C3704,2429 3701,2432 3698,2433 C3695,2435 3692,2437 3689,2438 C3673,2448 3655,2455 3639,2458 C3623,2461 3602,2464 3579,2464 C3529,2464 3490,2447 3463,2412 C3436,2377 3423,2338 3423,2294 C3423,2245 3438,2205 3465,2176 C3492,2147 3529,2131 3573,2131 C3615,2131 3650,2146 3675,2175 C3699,2203 3713,2248 3713,2308 L3487,2308 C3492,2340 3504,2364 3522,2380 C3540,2396 3564,2404 3595,2404 C3609,2404 3624,2401 3638,2398 C3651,2395 3666,2389 3680,2382 C3685,2380 3690,2376 3694,2374 C3698,2372 3703,2368 3708,2365 L3708,2364 L3707,2365 Z M3488,2265 L3650,2265 C3649,2241 3642,2222 3629,2208 C3616,2194 3598,2187 3575,2187 C3551,2187 3530,2195 3517,2208 C3503,2221 3493,2241 3489,2266 L3488,2265 Z M4030,2401 L4030,2440 C4020,2447 4012,2452 4005,2456 C3998,2459 3992,2462 3986,2463 C3983,2464 3980,2465 3978,2465 L3969,2465 C3955,2465 3944,2462 3936,2457 C3928,2452 3923,2444 3920,2432 C3906,2443 3892,2451 3877,2456 C3862,2461 3848,2464 3833,2464 C3810,2464 3790,2455 3776,2440 C3762,2425 3754,2406 3754,2386 C3754,2357 3765,2336 3783,2323 C3802,2310 3824,2299 3847,2290 C3850,2289 3853,2288 3855,2287 C3858,2286 3860,2285 3863,2284 L3919,2263 L3919,2246 C3919,2226 3914,2212 3905,2203 C3895,2194 3881,2190 3861,2190 L3854,2190 L3848,2190 C3832,2192 3816,2198 3802,2206 C3788,2214 3773,2227 3759,2242 L3759,2172 C3771,2158 3787,2146 3804,2140 C3821,2134 3842,2129 3866,2129 C3898,2129 3927,2138 3949,2154 C3971,2170 3983,2199 3983,2234 L3983,2399 C3983,2404 3985,2411 3986,2413 C3987,2415 3991,2417 3995,2417 C3998,2417 4003,2415 4009,2412 C4015,2409 4021,2405 4029,2399 L4029,2398 L4030,2401 Z M3921,2393 L3921,2299 C3894,2309 3869,2320 3850,2330 C3830,2340 3820,2356 3820,2375 C3820,2388 3825,2400 3833,2408 C3841,2416 3853,2420 3866,2420 C3876,2420 3886,2418 3895,2413 C3904,2408 3913,2402 3922,2394 L3922,2393 L3921,2393 Z M4274,2157 L4274,2220 C4256,2209 4239,2199 4223,2195 C4208,2191 4193,2187 4181,2187 C4168,2187 4157,2191 4150,2195 C4143,2200 4139,2208 4139,2216 C4139,2223 4146,2232 4157,2241 C4168,2250 4189,2264 4217,2280 C4231,2290 4243,2298 4253,2306 C4263,2314 4270,2322 4276,2329 C4281,2336 4285,2343 4286,2349 C4287,2355 4289,2362 4289,2370 C4289,2398 4278,2422 4259,2438 C4240,2454 4214,2464 4183,2464 C4174,2464 4165,2463 4158,2463 C4151,2463 4142,2461 4134,2459 C4124,2457 4114,2453 4104,2450 C4095,2447 4083,2441 4071,2435 L4071,2366 C4092,2381 4112,2392 4130,2399 C4147,2405 4164,2409 4176,2409 C4189,2408 4200,2405 4209,2399 C4218,2393 4223,2384 4223,2373 C4223,2367 4220,2361 4217,2357 C4214,2353 4207,2347 4201,2342 C4194,2337 4186,2332 4177,2327 C4168,2322 4159,2317 4149,2311 C4130,2300 4112,2286 4098,2272 C4083,2258 4074,2239 4074,2218 C4074,2191 4084,2169 4103,2154 C4122,2139 4148,2131 4180,2131 C4195,2131 4211,2134 4226,2137 C4241,2140 4258,2148 4274,2157 L4274,2156 L4274,2157 Z" id="Shape" fill="#007B7E"></path>
                        <path d="M2952,633 L2952,2460 L2718,2460 L2718,636 C2749,663 2789,679 2833,679 C2879,679 2920,662 2951,633 L2952,633 Z" id="Shape" fill="#007B7E"></path>
                        <path d="M2976,401 C2976,441 2962,475 2935,502 C2912,525 2884,538 2853,542 C2842,541 2830,540 2819,542 C2788,538 2761,525 2739,502 C2712,475 2698,442 2698,404 C2698,366 2712,333 2739,306 C2766,279 2799,265 2837,265 C2876,265 2908,279 2935,306 C2962,333 2976,366 2976,404 L2976,401 L2976,401 Z" id="Shape" fill="#F44336"></path>
                    </g>
                    <rect id="Rectangle-path" x="0" y="0" width="8629" height="3107"></rect>
                </g>
            </g>
        </g>
    </g>
</svg>